<svg width="42" height="42" viewBox="0 0 42 42" fill="none" xmlns="http://www.w3.org/2000/svg">
<path d="M1 21C1 9.95431 9.95431 1 21 1V1C32.0457 1 41 9.95431 41 21V21C41 32.0457 32.0457 41 21 41V41C9.95431 41 1 32.0457 1 21V21Z" fill="white" fill-opacity="0.24"/>
<path d="M20.6437 18.5928C20.1471 19.0399 19.1122 20.4321 18.6156 20.8799C20.2132 22.4441 23.2135 25.743 23.2368 25.7996C23.2481 25.8199 23.4493 26.0863 23.4597 26.1088C23.8726 27.0089 23.133 27.8457 22.1358 27.3544C21.1169 26.8521 19.9725 25.314 19.1475 24.5701C18.5608 24.0409 16.0715 21.687 16.0007 20.8799C15.9339 20.1185 20.5133 15.7425 22.3048 14.6762C22.9736 14.2792 23.4276 14.6268 23.5515 14.9934C23.9056 16.0328 21.2006 18.0905 20.6437 18.5928Z" fill="#502314"/>
<path d="M21 40C10.5066 40 2 31.4934 2 21H0C0 32.598 9.40202 42 21 42V40ZM40 21C40 31.4934 31.4934 40 21 40V42C32.598 42 42 32.598 42 21H40ZM21 2C31.4934 2 40 10.5066 40 21H42C42 9.40202 32.598 0 21 0V2ZM21 0C9.40202 0 0 9.40202 0 21H2C2 10.5066 10.5066 2 21 2V0Z" fill="#502314"/>
</svg>